<svg xmlns="http://www.w3.org/2000/svg" width="522.8693" height="95.927" viewBox="0 0 522.8693 95.927"><defs><style>.cls-1{fill:#fff;}.cls-2{opacity:0.3;}</style></defs><title>Asset 1</title><g id="Layer_2" data-name="Layer 2"><g id="Ebene_1" data-name="Ebene 1"><path class="cls-1" d="M487.7657,25.72a35.1036,35.1036,0,1,0,35.1036,35.1035A35.1036,35.1036,0,0,0,487.7657,25.72Zm22.5195,38.0311q-3.7516,3.8418-10.3243,3.8415a13.06,13.06,0,0,1-9.9261-4.007q-3.8046-4.007-3.8039-10.65a14.7672,14.7672,0,0,1,3.8963-10.6618,13.4578,13.4578,0,0,1,10.1782-4.0662q6.3879,0,10.0588,3.8534t3.6712,10.9454Q514.0354,59.9093,510.2852,63.7509Z"/><path class="cls-1" d="M362.2032.3919q-35.848,0-35.8481,39.517V95.1245h12.03V40.0975L384.518,41V95.1245h12.03V38.5255Q396.5475.3919,362.2032.3919Z"/><path class="cls-1" d="M245.7042,38.823C245.7042,11.8,229.0517.3919,215.7465.3919h-28.39V24.945a9.011,9.011,0,1,1,0,12.0977v56.518h12.03V73.6729h8.6612A15.2314,15.2314,0,0,1,217.25,76.47q3.8493,2.7967,8.4809,10.5559l2.8943,6.535h15.1613l-5.8458-8.58a69.3277,69.3277,0,0,0-7.2484-10.2852,19.0952,19.0952,0,0,0-6.6456-4.6314v-.3007C237.8407,65.9138,245.7042,51.7347,245.7042,38.823Z"/><circle class="cls-1" cx="349.0923" cy="52.4547" r="4.0766"/><circle class="cls-1" cx="372.6284" cy="52.4547" r="4.0766"/><path class="cls-1" d="M427.3453,56.6123q0,21.6065-14.2447,21.6065a18.94,18.94,0,0,1-11.731-3.89V92.9423a34.6639,34.6639,0,0,0,12.9879,2.3941q15.8008,0,24.27-9.8157,8.4672-9.8157,8.4684-28.19V1.01H427.3453Z"/><path class="cls-1" d="M307.7662.3919v56.96q0,27.0664-22.6757,27.0665-23.4578,0-23.4576-27.9687V.3919h-12.03V56.9908q0,38.1336,34.3443,38.1337,35.8482,0,35.8481-39.5171V.3919Z"/><path class="cls-1" d="M176.1217,51.1866q-5.6862-6.1041-15.1879-7.1877v-.2406a23.3833,23.3833,0,0,0,11.9987-8.36,22.2485,22.2485,0,0,0,4.3615-13.5935,18.9109,18.9109,0,0,0-7.3381-15.5481Q162.6179.3919,150.3478.3919H122.9806V93.5606H151.07q13.4732,0,22.1037-7.4282t8.6318-19.4578Q181.805,57.2917,176.1217,51.1866ZM164.0306,78.6741q-5.14,4.3617-14.5851,4.3607H135.01V50.555h12.4505q21.7133,0,21.7133,15.9993Q169.174,74.3134,164.0306,78.6741Z"/><path class="cls-1" d="M57.3476,93.1346a1.6051,1.6051,0,0,1-.6016-.1169c-.2882-.1165-7.13-2.95-13.3534-11.4566a49.54,49.54,0,0,1-7.936-17.4377c-2.0383-8.206-2.4968-17.6011-1.3628-27.9243a1.6058,1.6058,0,0,1,1.775-1.42,41.2758,41.2758,0,0,0,7.8023-.0493c3.7476-.3867,8.8236-1.5119,11.7231-4.6766a2.656,2.656,0,0,1,1.9534-.86h0a2.6558,2.6558,0,0,1,1.9533.86c2.8995,3.1647,7.9755,4.29,11.7231,4.6766a41.266,41.266,0,0,0,7.8033.0492,1.6066,1.6066,0,0,1,1.774,1.4205c1.134,10.3232.6755,19.7183-1.3628,27.9243a49.54,49.54,0,0,1-7.936,17.4377c-6.2231,8.5063-13.0652,11.34-13.3534,11.4566A1.6047,1.6047,0,0,1,57.3476,93.1346Z"/><path class="cls-1" d="M33.07,39.5506v.01h.74v-.01c-.1252-.0072-.2465.0068-.3708.0037C33.3157,39.5574,33.1976,39.5434,33.07,39.5506Z"/><path class="cls-1" d="M23.5536,0c.4353.0157.5106.0861.5575.5189-11.4377,9.8438-8.61,24.7627-6.9244,28.8945-10.14.2225-8.4088-12.499-8.5054-12.5024-12.5953,18.5566,14.6032,19.38,18.3917,19.38.0064.0876,1.5138,14.657,1.5926,17.8915C4.0774,54.183-18.7368,20.75,23.5536,0Z"/><path class="cls-1" d="M91.0417,0c-.4354.0157-.5106.0861-.5575.5189,11.4377,9.8438,8.61,24.7627,6.9244,28.8945,10.14.2225,8.4088-12.499,8.5054-12.5024,12.5952,18.5566-14.6032,19.38-18.3918,19.38-.0064.0876-1.5137,14.657-1.5925,17.8915C110.5179,54.183,133.3321,20.75,91.0417,0Z"/><g class="cls-2"><path class="cls-1" d="M80.6013,36.1991a1.6063,1.6063,0,0,0-1.7738-1.4205,41.2675,41.2675,0,0,1-7.8034-.0492c-3.7476-.3867-8.8236-1.512-11.723-4.6767a2.6563,2.6563,0,0,0-1.9535-.86V93.1346a1.6031,1.6031,0,0,0,.6015-.117c.2883-.1164,7.13-2.95,13.3535-11.4565a49.5406,49.5406,0,0,0,7.9361-17.4377C81.2769,55.9173,81.7355,46.5222,80.6013,36.1991Z"/></g></g></g></svg>