<svg xmlns="http://www.w3.org/2000/svg" xmlns:xlink="http://www.w3.org/1999/xlink" width="940.3234" height="40.4132" viewBox="0 0 940.3234 40.4132"><defs><style>.cls-1{fill:none;}.cls-1,.cls-2,.cls-3{stroke:#ec7027;stroke-width:1.5px;}.cls-1,.cls-2,.cls-3,.cls-4{stroke-miterlimit:10;}.cls-2{fill:url(#Unbenannter_Verlauf);}.cls-3{fill:url(#Unbenannter_Verlauf-2);}.cls-4,.cls-6{fill:#ec7027;}.cls-4{stroke:#000;stroke-width:0.15px;}.cls-5{fill:#fff;}.cls-7{opacity:0.3;}.cls-8{fill:#393939;}</style><linearGradient id="Unbenannter_Verlauf" x1="519.8346" y1="20.8581" x2="940.3234" y2="20.8581" gradientUnits="userSpaceOnUse"><stop offset="0" stop-color="#fff"/><stop offset="1"/></linearGradient><linearGradient id="Unbenannter_Verlauf-2" x1="519.8346" y1="24.8581" x2="940.3234" y2="24.8581" xlink:href="#Unbenannter_Verlauf"/></defs><title>Asset 2</title><g id="Layer_2" data-name="Layer 2"><g id="Ebene_1" data-name="Ebene 1"><line class="cls-1" x1="419.7191" y1="20.8581" y2="20.8581"/><line class="cls-2" x1="940.3234" y1="20.8581" x2="519.8346" y2="20.8581"/><line class="cls-1" x1="419.7191" y1="24.8581" y2="24.8581"/><line class="cls-3" x1="940.3234" y1="24.8581" x2="519.8346" y2="24.8581"/><path class="cls-4" d="M473.7018,23.25c-.0384-1.012.273-3.4643-1.012-5.2548a6.4793,6.4793,0,0,1-.9336-4.3011,76.4328,76.4328,0,0,0-.662-8.1543c-.3307-1.4206-.4082-2.0239-.2918-2.14a.4929.4929,0,0,0,.331-.39,7.5736,7.5736,0,0,0-.3775-1.5225h-3.7918A7.65,7.65,0,0,0,466.586,3.01a.4929.4929,0,0,0,.331.39c.1169.1163.0394.72-.2918,2.14a76.79,76.79,0,0,0-.6614,8.1543,6.48,6.48,0,0,1-.9345,4.3011c-1.2847,1.79-.973,4.2428-1.0116,5.2548s.072,14.9678.1166,15.3545a2.2953,2.2953,0,0,0,.4443,1.2648,2.4545,2.4545,0,0,0,1.801.4638c.3469.0071,4.6136.0071,4.961,0a2.4571,2.4571,0,0,0,1.8011-.4638,2.3,2.3,0,0,0,.444-1.2648C473.63,38.2175,473.7415,24.2614,473.7018,23.25ZM471.1584,1.4539c-.0029-.0327-.0085-.1017-.008-.2207a1.2827,1.2827,0,0,0-.4865-.9983,10.3286,10.3286,0,0,0-3.6084,0,1.2816,1.2816,0,0,0-.486.9983c0,.119-.0057.188-.0082.2207Z"/><path class="cls-5" d="M464.1783,37.0832c-.05-3.6944-.1177-13.002-.0859-13.8311.0073-.1777.0034-.4023-.001-.6592l-.0024-.1523h9.542l-.003.1523c-.0039.2569-.0078.4815-.001.6592.0323.8116-.0351,10.125-.0849,13.8311Z"/><path d="M473.5543,22.5155l-.0014.09c-.0042.2527-.0077.4738-.001.65.0321.8169-.0341,10.0068-.0839,13.7527h-9.216c-.05-3.7426-.1163-12.9312-.0845-13.7529.0068-.1767.0032-.3984-.001-.6516l-.0013-.0883h9.3891m.1523-.15h-9.6938c.0047.3511.0136.6557.0048.8842-.0319.8241.0361,10.2374.0864,13.9086h9.5119c.05-3.6712.1182-13.0845.0859-13.9086-.0087-.2285,0-.5331.0048-.8842Z"/><path class="cls-6" d="M468.8051,32.9119a.1292.1292,0,0,1-.0482-.0094,2.7631,2.7631,0,0,1-1.0707-.9186,3.9707,3.9707,0,0,1-.6363-1.3981,6.4184,6.4184,0,0,1-.1093-2.239.1288.1288,0,0,1,.1423-.1139,3.31,3.31,0,0,0,.6256-.0039,1.5145,1.5145,0,0,0,.94-.375.2129.2129,0,0,1,.1566-.069h0a.2129.2129,0,0,1,.1566.069,1.5145,1.5145,0,0,0,.94.375,3.31,3.31,0,0,0,.6256.0039.1288.1288,0,0,1,.1423.1139,6.4184,6.4184,0,0,1-.1093,2.239,3.9707,3.9707,0,0,1-.6363,1.3981,2.7623,2.7623,0,0,1-1.0707.9186A.1292.1292,0,0,1,468.8051,32.9119Z"/><path class="cls-6" d="M466.8585,28.6155v.0008h.0594v-.0008c-.01-.0006-.02.0006-.03,0S466.8688,28.6149,466.8585,28.6155Z"/><path class="cls-6" d="M466.0955,25.4444c.0349.0012.041.0069.0447.0416a2.1539,2.1539,0,0,0-.5552,2.3167c-.813.0179-.6742-1.0021-.6819-1.0024-1.01,1.4879,1.1708,1.5539,1.4746,1.5539,0,.007.1214,1.1752.1277,1.4346C464.5339,29.7888,462.7047,27.1081,466.0955,25.4444Z"/><path class="cls-6" d="M471.5067,25.4444c-.0349.0012-.041.0069-.0447.0416a2.1541,2.1541,0,0,1,.5552,2.3167c.813.0179.6742-1.0021.6819-1.0024,1.01,1.4879-1.1708,1.5539-1.4746,1.5539,0,.007-.1214,1.1752-.1277,1.4346C473.0683,29.7888,474.8975,27.1081,471.5067,25.4444Z"/><g class="cls-7"><path class="cls-8" d="M470.67,28.3468a.1288.1288,0,0,0-.1422-.1139,3.3118,3.3118,0,0,1-.6257-.0039,1.5145,1.5145,0,0,1-.94-.375.2129.2129,0,0,0-.1566-.069v5.1269a.1292.1292,0,0,0,.0482-.0094,2.7631,2.7631,0,0,0,1.0707-.9186,3.9707,3.9707,0,0,0,.6363-1.3981A6.4184,6.4184,0,0,0,470.67,28.3468Z"/></g><polygon class="cls-6" points="471.526 9.473 471.526 9.473 471.526 9.473 471.526 9.473"/></g></g></svg>